<svg width="308" height="168" viewBox="0 0 308 168" fill="none" xmlns="http://www.w3.org/2000/svg">
<path opacity="0.7" d="M3.25 43V42.8964L3.17678 42.8232L0.25 39.8964V20.1036L20.1036 0.25H287.896L307.75 20.1036V39.8964L304.823 42.8232L304.75 42.8964V43V125V125.104L304.823 125.177L307.75 128.104V147.896L287.896 167.75H20.1035L0.25 147.896V128.104L3.17678 125.177L3.25 125.104V125V43Z" fill="black" stroke="white" stroke-width="0.5"/>
<g clip-path="url(#clip0_3169_264)">
<path d="M67.0941 89.4006C67.0941 91.5276 67.5669 93.1607 68.1849 94.1486C68.9953 95.4427 70.2039 95.9909 71.436 95.9909C73.0253 95.9909 74.4791 95.6015 77.2809 91.7756C79.5254 88.7091 82.1703 84.4047 83.9498 81.7062L86.9635 77.1344C89.057 73.9594 91.4801 70.4299 94.2583 68.0375C96.5264 66.0848 98.973 65 101.435 65C105.569 65 109.507 67.3653 112.521 71.8014C115.819 76.6598 117.42 82.7794 117.42 89.0946C117.42 92.8488 116.671 95.6073 115.395 97.7866C114.163 99.8943 111.762 102 107.722 102V95.9909C111.181 95.9909 112.044 92.8527 112.044 89.2612C112.044 84.1431 110.835 78.4634 108.173 74.405C106.284 71.5263 103.835 69.7674 101.141 69.7674C98.2275 69.7674 95.8829 71.937 93.2479 75.8055C91.847 77.8609 90.4088 80.3657 88.7941 83.192L87.0165 86.3012C83.4456 92.5524 82.5411 93.9762 80.7556 96.326C77.6262 100.441 74.9539 102 71.436 102C67.2628 102 64.6239 100.216 62.9895 97.5271C61.6553 95.3361 61 92.4614 61 89.1856L67.0941 89.4006Z" fill="#0081FB"/>
<path d="M65.8047 72.2257C68.5986 67.9736 72.6306 65 77.2551 65C79.9332 65 82.5957 65.7826 85.3759 68.0239C88.417 70.4744 91.6583 74.5096 95.702 81.1599L97.152 83.5465C100.652 89.3038 102.644 92.2657 103.809 93.6624C105.308 95.4562 106.358 95.9909 107.721 95.9909C111.18 95.9909 112.044 92.8527 112.044 89.2612L117.42 89.0946C117.42 92.8488 116.67 95.6073 115.395 97.7866C114.163 99.8943 111.761 102 107.721 102C105.21 102 102.985 101.461 100.525 99.1698C98.6333 97.4108 96.4221 94.2862 94.721 91.4773L89.661 83.1319C87.1221 78.9438 84.7932 75.821 83.4453 74.4069C81.9953 72.8862 80.1314 71.0498 77.157 71.0498C74.7496 71.0498 72.7051 72.7177 70.9942 75.269L65.8047 72.2257Z" fill="url(#paint0_linear_3169_264)"/>
<path d="M77.1573 71.0498C74.7499 71.0498 72.7054 72.7177 70.9946 75.269C68.5754 78.874 67.0941 84.2439 67.0941 89.4006C67.0941 91.5276 67.5669 93.1607 68.1849 94.1486L62.9895 97.5271C61.6553 95.3361 61 92.4614 61 89.1856C61 83.2288 62.6559 77.0202 65.805 72.2257C68.5989 67.9736 72.6309 65 77.2554 65L77.1573 71.0498Z" fill="url(#paint1_linear_3169_264)"/>
<path d="M129.268 66.1699H136.317L148.303 87.5796L160.291 66.1699H167.188V101.349H161.437V74.3874L150.924 93.0579H145.529L135.018 74.3874V101.349H129.268V66.1699ZM185.207 79.2865C181.083 79.2865 178.599 82.3511 178.004 86.146H192.001C191.713 82.2368 189.429 79.2865 185.207 79.2865ZM172.303 88.3079C172.303 80.3229 177.529 74.5114 185.307 74.5114C192.957 74.5114 197.524 80.2493 197.524 88.7341V90.2935H178.004C178.697 94.4217 181.471 97.2034 185.945 97.2034C189.514 97.2034 191.744 96.1283 193.859 94.1621L196.914 97.8563C194.036 100.47 190.375 101.977 185.741 101.977C177.322 101.977 172.303 95.9152 172.303 88.3079ZM204.498 79.7902H199.204V75.141H204.498V67.4523H210.046V75.141H218.088V79.7902H210.046V91.574C210.046 95.5975 211.349 97.0272 214.551 97.0272C216.013 97.0272 216.85 96.9032 218.088 96.6998V101.299C216.546 101.729 215.075 101.926 213.482 101.926C207.492 101.926 204.498 98.6951 204.498 92.2268V79.7902ZM241.452 84.3115C240.338 81.5336 237.852 79.488 234.199 79.488C229.451 79.488 226.411 82.8141 226.411 88.2324C226.411 93.5151 229.209 97.002 233.971 97.002C237.715 97.002 240.387 94.8517 241.452 92.1765V84.3115ZM247.001 101.349H241.554V97.68C240.032 99.8399 237.261 101.977 232.774 101.977C225.558 101.977 220.735 96.0121 220.735 88.2324C220.735 80.3791 225.674 74.5114 233.08 74.5114C236.741 74.5114 239.614 75.9565 241.554 78.5078V75.141H247.001V101.349Z" fill="white"/>
</g>
<defs>
<linearGradient id="paint0_linear_3169_264" x1="72.968" y1="87.6649" x2="111.814" y2="89.652" gradientUnits="userSpaceOnUse">
<stop stop-color="#0064E1"/>
<stop offset="0.4" stop-color="#0064E1"/>
<stop offset="0.83" stop-color="#0073EE"/>
<stop offset="1" stop-color="#0082FB"/>
</linearGradient>
<linearGradient id="paint1_linear_3169_264" x1="69.8291" y1="91.9267" x2="69.8291" y2="77.7853" gradientUnits="userSpaceOnUse">
<stop stop-color="#0082FB"/>
<stop offset="1" stop-color="#0064E0"/>
</linearGradient>
<clipPath id="clip0_3169_264">
<rect width="186" height="37" fill="white" transform="translate(61 65)"/>
</clipPath>
</defs>
</svg>
