<svg width="308" height="168" viewBox="0 0 308 168" fill="none" xmlns="http://www.w3.org/2000/svg">
<path opacity="0.7" d="M3.25 43V42.8964L3.17678 42.8232L0.25 39.8964V20.1036L20.1036 0.25H287.896L307.75 20.1036V39.8964L304.823 42.8232L304.75 42.8964V43V125V125.104L304.823 125.177L307.75 128.104V147.896L287.896 167.75H20.1035L0.25 147.896V128.104L3.17678 125.177L3.25 125.104V125V43Z" fill="black" stroke="white" stroke-width="0.5"/>
<g clip-path="url(#clip0_3169_265)">
<path d="M167.49 102.49C164.85 102.49 162.96 103.39 162.04 105.1L161.54 106.02V102.94H157.24V121.74H161.77V110.56C161.77 107.89 163.22 106.35 165.77 106.35C168.32 106.35 169.57 107.84 169.57 110.44V121.74H174.1V109.63C174.07 105.16 171.61 102.49 167.49 102.49ZM145.55 102.49C140.21 102.49 136.89 105.82 136.89 111.18V113.82C136.89 118.98 140.24 122.18 145.62 122.18C149.22 122.18 151.75 120.86 153.34 118.18L150.53 116.57C149.959 117.339 149.219 117.966 148.368 118.404C147.517 118.843 146.577 119.081 145.62 119.1C142.89 119.1 141.27 117.42 141.27 114.6V113.85H153.91V110.71C153.91 105.72 150.62 102.49 145.55 102.49ZM149.79 110.78H141.27V110.33C141.27 107.23 142.79 105.53 145.55 105.53C148.31 105.53 149.79 107.21 149.79 110.03V110.78ZM219 99.8505V96.2505H203.35V99.8505H208.84V118.15H203.35V121.75H219V118.15H213.51V99.8505H219ZM100.33 95.7305C93.34 95.7305 89 100.09 89 107.1V110.89C89 117.89 93.34 122.26 100.33 122.26C107.32 122.26 111.66 117.9 111.66 110.89V107.1C111.67 100.09 107.32 95.7305 100.33 95.7305ZM107 111.15C107 115.81 104.57 118.48 100.34 118.48C96.11 118.48 93.68 115.81 93.68 111.15V106.84C93.68 102.18 96.11 99.5105 100.34 99.5105C104.57 99.5105 107 102.18 107 106.84V111.15ZM125.89 102.49C124.827 102.439 123.768 102.652 122.808 103.111C121.848 103.57 121.017 104.261 120.39 105.12L119.9 105.87V102.94H115.6V128.21H120.13V119.06L120.61 119.78C121.236 120.582 122.047 121.221 122.973 121.64C123.9 122.06 124.914 122.249 125.93 122.19C129.83 122.19 133.77 119.64 133.77 113.94V110.74C133.76 106.64 131.32 102.49 125.88 102.49H125.89ZM129.24 113.71C129.24 116.71 127.47 118.62 124.63 118.62C121.98 118.62 120.13 116.62 120.13 113.78V111C120.13 108.11 122 106.09 124.67 106.09C127.49 106.09 129.25 107.97 129.25 111L129.24 113.71ZM186.57 96.2505L177.43 121.74H182L183.75 116.28H194.25V116.33L196 121.74H200.6L191.46 96.2505H186.57ZM184.91 112.68L189 99.7905L193.08 112.68H184.91Z" fill="white"/>
<path d="M175.55 61.7306C175.082 59.9524 174.166 58.3238 172.89 57.0006C173.421 55.531 173.62 53.9624 173.475 52.4067C173.33 50.851 172.843 49.3465 172.05 48.0006C170.844 45.9795 169.027 44.3949 166.86 43.4761C164.694 42.5574 162.291 42.3523 160 42.8906C158.714 41.3932 157.049 40.2694 155.18 39.6369C153.31 39.0044 151.305 38.8865 149.374 39.2955C147.444 39.7046 145.659 40.6255 144.206 41.9618C142.754 43.2981 141.688 45.0005 141.12 46.8906C139.563 47.1633 138.084 47.7715 136.785 48.6729C135.487 49.5742 134.4 50.7472 133.6 52.1106C132.413 54.1302 131.918 56.4823 132.19 58.8091C132.463 61.1359 133.488 63.31 135.11 65.0006C134.579 66.4701 134.379 68.0387 134.525 69.5944C134.67 71.1501 135.156 72.6546 135.95 74.0006C137.148 76.0288 138.965 77.619 141.134 78.5371C143.303 79.4552 145.71 79.6527 148 79.1006C149.282 80.6011 150.943 81.7292 152.811 82.3666C154.679 83.004 156.684 83.1272 158.615 82.7233C160.547 82.3193 162.335 81.4032 163.79 80.0708C165.246 78.7385 166.317 77.039 166.89 75.1506C168.447 74.8778 169.926 74.2696 171.224 73.3683C172.523 72.4669 173.61 71.2939 174.41 69.9306C175.137 68.7088 175.613 67.354 175.808 65.9457C176.004 64.5375 175.916 63.1043 175.55 61.7306ZM167.36 72.0006C167.353 71.8829 167.315 71.7692 167.25 71.6709C167.185 71.5726 167.095 71.4931 166.99 71.4406V61.2506C167.036 61.0392 167.012 60.8188 166.921 60.6223C166.831 60.4258 166.68 60.2638 166.49 60.1606L156.49 54.5106L160.1 52.4606L168.56 57.2706C169.506 57.8033 170.336 58.5202 171.001 59.3789C171.666 60.2377 172.151 61.2209 172.43 62.2706C172.709 63.3008 172.78 64.3765 172.638 65.4345C172.495 66.4924 172.142 67.5111 171.6 68.4306C170.644 70.0772 169.145 71.3395 167.36 72.0006ZM140.64 50.0006C140.647 50.1195 140.686 50.2344 140.753 50.333C140.82 50.4316 140.912 50.5102 141.02 50.5606V60.7506C140.96 60.9609 140.977 61.1854 141.067 61.3847C141.156 61.584 141.313 61.7454 141.51 61.8406L151.51 67.4906L147.9 69.5406L139.4 64.7206C138.454 64.1878 137.624 63.4709 136.959 62.6122C136.294 61.7534 135.808 60.7702 135.53 59.7206C135.25 58.6903 135.18 57.6146 135.322 56.5567C135.465 55.4987 135.818 54.48 136.36 53.5606C137.327 51.9105 138.841 50.6511 140.64 50.0006ZM170.35 55.0606C170.137 54.9523 169.892 54.9239 169.66 54.9806L160.76 49.9206C160.571 49.8136 160.357 49.7575 160.14 49.7575C159.923 49.7575 159.709 49.8136 159.52 49.9206L149.38 55.7106V51.5106L158 46.7006C159.909 45.6137 162.169 45.3191 164.293 45.8801C166.417 46.441 168.236 47.8128 169.36 49.7006C170.312 51.3218 170.662 53.2266 170.35 55.0806V55.0606ZM154 56.0006L158.62 58.6206V63.4506L154 66.0006L149.39 63.3806V58.5806L154 56.0006ZM156.58 44.6306L147.53 49.6906C147.334 49.7892 147.177 49.9492 147.081 50.1461C146.985 50.343 146.957 50.5659 147 50.7806V62.0006L143.36 60.0006V50.6006C143.366 50.534 143.366 50.4671 143.36 50.4006C143.378 48.8281 143.842 47.2931 144.697 45.9733C145.552 44.6535 146.763 43.6031 148.191 42.9437C149.618 42.2843 151.203 42.043 152.763 42.2478C154.322 42.4525 155.791 43.0949 157 44.1006C156.803 44.2231 156.654 44.4105 156.58 44.6306ZM137.65 66.9206C137.783 66.989 137.93 67.0266 138.08 67.0306C138.166 67.0419 138.254 67.0419 138.34 67.0306L147.24 72.0906C147.429 72.1984 147.642 72.2552 147.86 72.2552C148.077 72.2552 148.291 72.1984 148.48 72.0906L158.63 66.3206V70.5206L150 75.3006C148.091 76.3874 145.831 76.682 143.707 76.121C141.583 75.5601 139.764 74.1884 138.64 72.3006C137.688 70.6793 137.337 68.7745 137.65 66.9206ZM151.42 77.3706L160.48 72.3206C160.675 72.2199 160.832 72.0576 160.926 71.8587C161.02 71.6599 161.046 71.4356 161 71.2206V60.0006L164.63 62.0006V71.4006C164.624 71.4671 164.624 71.534 164.63 71.6006C164.61 73.1712 164.146 74.7041 163.292 76.022C162.437 77.34 161.227 78.3892 159.801 79.0482C158.376 79.7072 156.792 79.9492 155.235 79.7461C153.677 79.543 152.209 78.9032 151 77.9006C151.197 77.778 151.346 77.5906 151.42 77.3706Z" fill="white"/>
</g>
<defs>
<clipPath id="clip0_3169_265">
<rect width="130" height="90" fill="white" transform="translate(89 39)"/>
</clipPath>
</defs>
</svg>
