<svg width="308" height="168" viewBox="0 0 308 168" fill="none" xmlns="http://www.w3.org/2000/svg">
<path opacity="0.7" d="M304.823 42.8232L304.75 42.8964V43V125V125.104L304.823 125.177L307.75 128.104V147.896L287.896 167.75H20.1035L0.25 147.896V128.104L3.17678 125.177L3.25 125.104V125V43V42.8964L3.17678 42.8232L0.25 39.8964V20.1036L20.1036 0.25H287.896L307.75 20.1036V39.8964L304.823 42.8232Z" fill="black" stroke="white" stroke-width="0.5"/>
<g clip-path="url(#clip0_1966_22826)">
<path d="M142.66 85.4355C142.66 93.3045 136.573 99.103 129.102 99.103C121.631 99.103 115.543 93.3045 115.543 85.4355C115.543 77.5111 121.631 71.7681 129.102 71.7681C136.573 71.7681 142.66 77.5111 142.66 85.4355ZM136.725 85.4355C136.725 80.5182 133.197 77.1537 129.102 77.1537C125.007 77.1537 121.479 80.5182 121.479 85.4355C121.479 90.3035 125.007 93.7173 129.102 93.7173C133.197 93.7173 136.725 90.2974 136.725 85.4355Z" fill="#EA4335"/>
<path d="M171.909 85.4355C171.909 93.3045 165.821 99.103 158.351 99.103C150.88 99.103 144.792 93.3045 144.792 85.4355C144.792 77.5173 150.88 71.7681 158.351 71.7681C165.821 71.7681 171.909 77.5111 171.909 85.4355ZM165.974 85.4355C165.974 80.5182 162.446 77.1537 158.351 77.1537C154.256 77.1537 150.727 80.5182 150.727 85.4355C150.727 90.3035 154.256 93.7173 158.351 93.7173C162.446 93.7173 165.974 90.2974 165.974 85.4355Z" fill="#FBBC05"/>
<path d="M199.941 72.5938V97.1311C199.941 107.225 194.055 111.347 187.096 111.347C180.545 111.347 176.602 106.916 175.115 103.293L180.283 101.118C181.203 103.342 183.458 105.968 187.09 105.968C191.544 105.968 194.305 103.188 194.305 97.9568V95.9911H194.097C192.769 97.6487 190.21 99.0968 186.98 99.0968C180.222 99.0968 174.031 93.1443 174.031 85.4848C174.031 77.7699 180.222 71.7681 186.98 71.7681C190.204 71.7681 192.763 73.2162 194.097 74.8244H194.305V72.5999H199.941V72.5938ZM194.725 85.4848C194.725 80.6722 191.55 77.1537 187.51 77.1537C183.415 77.1537 179.984 80.6722 179.984 85.4848C179.984 90.2481 183.415 93.7173 187.51 93.7173C191.55 93.7173 194.725 90.2481 194.725 85.4848Z" fill="#4285F4"/>
<path d="M209.233 58.2114V98.2648H203.444V58.2114H209.233Z" fill="#34A853"/>
<path d="M231.792 89.9336L236.399 93.0393C234.912 95.2638 231.329 99.0966 225.138 99.0966C217.46 99.0966 211.726 93.0948 211.726 85.4292C211.726 77.3014 217.509 71.7617 224.474 71.7617C231.488 71.7617 234.919 77.4062 236.04 80.4564L236.655 82.0092L218.587 89.5762C219.971 92.3184 222.122 93.7171 225.138 93.7171C228.161 93.7171 230.257 92.2136 231.792 89.9336ZM217.612 85.0163L229.69 79.9449C229.026 78.238 227.027 77.0488 224.675 77.0488C221.659 77.0488 217.46 79.7416 217.612 85.0163Z" fill="#EA4335"/>
<path d="M93.6301 81.8803V76.0818H112.953C113.142 77.0924 113.24 78.2878 113.24 79.5819C113.24 83.9323 112.064 89.3118 108.273 93.1446C104.587 97.0267 99.8762 99.0971 93.6362 99.0971C82.0703 99.0971 72.3447 89.5706 72.3447 77.875C72.3447 66.1794 82.0703 56.6528 93.6362 56.6528C100.035 56.6528 104.593 59.1916 108.017 62.5006L103.971 66.5922C101.515 64.263 98.1882 62.4513 93.6301 62.4513C85.1842 62.4513 78.5786 69.3344 78.5786 77.875C78.5786 86.4156 85.1842 93.2986 93.6301 93.2986C99.1084 93.2986 102.228 91.0741 104.227 89.053C105.848 87.4139 106.914 85.0723 107.335 81.8742L93.6301 81.8803Z" fill="#4285F4"/>
</g>
<defs>
<clipPath id="clip0_1966_22826">
<rect width="165" height="54" fill="white" transform="translate(72 57)"/>
</clipPath>
</defs>
</svg>
