<svg width="308" height="168" viewBox="0 0 308 168" fill="none" xmlns="http://www.w3.org/2000/svg">
<path opacity="0.7" d="M304.823 42.8232L304.75 42.8964V43V125V125.104L304.823 125.177L307.75 128.104V147.896L287.896 167.75H20.1035L0.25 147.896V128.104L3.17678 125.177L3.25 125.104V125V43V42.8964L3.17678 42.8232L0.25 39.8964V20.1036L20.1036 0.25H287.896L307.75 20.1036V39.8964L304.823 42.8232Z" fill="black" stroke="white" stroke-width="0.5"/>
<path d="M178.339 73.4788C177.969 73.7624 171.428 77.3978 171.428 85.4816C171.428 94.8317 179.751 98.1395 180 98.2214C179.962 98.423 178.678 102.752 175.612 107.162C172.878 111.043 170.023 114.918 165.679 114.918C161.336 114.918 160.218 112.429 155.204 112.429C150.318 112.429 148.58 115 144.607 115C140.634 115 137.862 111.409 134.675 106.998C130.983 101.819 128 93.7732 128 86.1368C128 73.8884 136.074 67.3924 144.02 67.3924C148.242 67.3924 151.761 70.1269 154.412 70.1269C156.935 70.1269 160.87 67.2286 165.673 67.2286C167.493 67.2286 174.034 67.3924 178.339 73.4788ZM163.393 62.0432C165.379 59.7183 166.784 56.4923 166.784 53.2664C166.784 52.8191 166.746 52.3654 166.663 52C163.431 52.1197 159.586 54.1233 157.267 56.7759C155.447 58.8173 153.748 62.0432 153.748 65.3132C153.748 65.8047 153.831 66.2961 153.869 66.4536C154.073 66.4914 154.406 66.5356 154.738 66.5356C157.638 66.5356 161.285 64.6202 163.393 62.0432Z" fill="white"/>
</svg>
