<svg width="1360" height="241" viewBox="0 0 1360 241" fill="none" xmlns="http://www.w3.org/2000/svg">
<path d="M282.269 0H210.389V47.7284H282.269V241H330.029V47.7284H401.91V0H330.029H282.269Z" fill="white"/>
<path d="M776.479 0V241H824.239V134.477H930.495V86.7484H824.239V47.103H952.16V0H780.234H776.479Z" fill="white"/>
<path d="M585.255 0V241H633.015V134.477H739.271V86.7484H633.015V47.103H760.936V0H589.011H585.255Z" fill="white"/>
<path d="M967.717 241H971.52H1143.4V193.271H1015.48V134.477H1121.73V86.7484H1015.48V47.103H1143.4V0H967.717V241Z" fill="white"/>
<path d="M1312.58 40.0303L1291.44 95.8418H1227.5L1206.32 40.0303V0H1158.95V48.6907L1186.2 120.476L1158.95 192.309V241H1206.32V200.969L1228.23 143.185H1290.67L1312.58 200.969V241H1360V192.309L1332.75 120.476L1360 48.6907V0H1312.58V40.0303Z" fill="white"/>
<path d="M398.688 113.115L368.645 192.309V241H416.02V200.97L426.949 172.15H511.347L522.276 200.97V241H569.65V192.309L539.608 113.115L491.993 0.0483398H441.007L398.639 113.163L398.688 113.115ZM467.631 64.0872L493.004 124.421H445.003L467.583 64.0872H467.631Z" fill="white"/>
<path d="M47.7598 78.954V47.536H194.698V0H22.5319L0 22.517V113.788L153.197 153.433V193.464H0V241H178.425L201.005 218.435V118.599L47.7598 78.954Z" fill="white"/>
</svg>
